# Blender 4.4.3
# www.blender.org
mtllib Player.mtl
o Cube
v -1.000000 -1.000000 1.000000
v -0.819085 1.000000 0.819085
v -1.000000 -1.000000 -1.000000
v -0.819085 1.000000 -0.819085
v 1.000000 -1.000000 1.000000
v 0.819085 1.000000 0.819085
v 1.000000 -1.000000 -1.000000
v 0.819085 1.000000 -0.819085
v -1.000000 1.000000 1.000000
v -1.000000 1.000000 -1.000000
v 1.000000 1.000000 -1.000000
v 1.000000 1.000000 1.000000
v -1.000000 1.000000 1.000000
v -1.000000 1.000000 -1.000000
v 1.000000 1.000000 -1.000000
v 1.000000 1.000000 1.000000
v -0.655858 1.639839 0.655858
v -0.655858 1.639839 -0.655858
v 0.655858 1.639839 -0.655858
v 0.655858 1.639839 0.655858
v -0.819085 1.639839 0.819085
v -0.819085 1.639839 -0.819085
v 0.819085 1.639839 -0.819085
v 0.819085 1.639839 0.819085
v -0.655858 2.260683 0.655858
v -0.655858 2.260683 -0.655858
v 0.655858 2.260683 -0.655858
v 0.655858 2.260683 0.655858
vn -1.0000 -0.0000 -0.0000
vn -0.0000 -0.0000 -1.0000
vn 1.0000 -0.0000 -0.0000
vn -0.0000 -0.0000 1.0000
vn -0.0000 -1.0000 -0.0000
vn -0.0000 1.0000 -0.0000
vt 0.625000 0.000000
vt 0.375000 0.250000
vt 0.375000 0.000000
vt 0.625000 0.250000
vt 0.375000 0.500000
vt 0.625000 0.500000
vt 0.375000 0.750000
vt 0.625000 0.750000
vt 0.375000 1.000000
vt 0.125000 0.750000
vt 0.125000 0.500000
vt 0.647614 0.727386
vt 0.852386 0.727386
vt 0.875000 0.750000
vt 0.875000 0.500000
vt 0.852386 0.522614
vt 0.647614 0.522614
vt 0.668018 0.706982
vt 0.831982 0.706982
vt 0.831982 0.543018
vt 0.668018 0.543018
vt 0.625000 1.000000
s 0
usemtl Material.001
f 9/1/1 3/2/1 1/3/1
f 10/4/2 7/5/2 3/2/2
f 11/6/3 5/7/3 7/5/3
f 12/8/4 1/9/4 5/7/4
f 7/5/5 1/10/5 3/11/5
f 6/12/4 21/13/4 2/13/4
f 13/14/6 10/15/6 9/14/6
f 14/15/6 11/6/6 10/15/6
f 15/6/6 12/8/6 11/6/6
f 16/8/6 9/14/6 12/8/6
f 4/16/6 13/14/6 2/13/6
f 8/17/6 14/15/6 4/16/6
f 6/12/6 15/6/6 8/17/6
f 2/13/6 16/8/6 6/12/6
f 20/18/4 25/19/4 17/19/4
f 4/16/2 23/17/2 8/17/2
f 8/17/3 24/12/3 6/12/3
f 2/13/1 22/16/1 4/16/1
f 17/19/6 22/16/6 21/13/6
f 18/20/6 23/17/6 22/16/6
f 19/21/6 24/12/6 23/17/6
f 20/18/6 21/13/6 24/12/6
f 26/20/6 28/18/6 27/21/6
f 18/20/2 27/21/2 19/21/2
f 19/21/3 28/18/3 20/18/3
f 17/19/1 26/20/1 18/20/1
f 9/1/1 10/4/1 3/2/1
f 10/4/2 11/6/2 7/5/2
f 11/6/3 12/8/3 5/7/3
f 12/8/4 9/22/4 1/9/4
f 7/5/5 5/7/5 1/10/5
f 6/12/4 24/12/4 21/13/4
f 13/14/6 14/15/6 10/15/6
f 14/15/6 15/6/6 11/6/6
f 15/6/6 16/8/6 12/8/6
f 16/8/6 13/14/6 9/14/6
f 4/16/6 14/15/6 13/14/6
f 8/17/6 15/6/6 14/15/6
f 6/12/6 16/8/6 15/6/6
f 2/13/6 13/14/6 16/8/6
f 20/18/4 28/18/4 25/19/4
f 4/16/2 22/16/2 23/17/2
f 8/17/3 23/17/3 24/12/3
f 2/13/1 21/13/1 22/16/1
f 17/19/6 18/20/6 22/16/6
f 18/20/6 19/21/6 23/17/6
f 19/21/6 20/18/6 24/12/6
f 20/18/6 17/19/6 21/13/6
f 26/20/6 25/19/6 28/18/6
f 18/20/2 26/20/2 27/21/2
f 19/21/3 27/21/3 28/18/3
f 17/19/1 25/19/1 26/20/1
